Coordinates
version=1
nRows=11
nColumns=40
inDegrees=yes

Units are S.I. units (second, meters, Newtons, ...)
Angles are in degrees.

endheader
time	pelvis_tilt	pelvis_list	pelvis_rotation	pelvis_tx	pelvis_ty	pelvis_tz	hip_flexion_r	hip_adduction_r	hip_rotation_r	knee_angle_r	knee_angle_r_beta	ankle_angle_r	subtalar_angle_r	mtp_angle_r	hip_flexion_l	hip_adduction_l	hip_rotation_l	knee_angle_l	knee_angle_l_beta	ankle_angle_l	subtalar_angle_l	mtp_angle_l	lumbar_extension	lumbar_bending	lumbar_rotation	arm_flex_r	arm_add_r	arm_rot_r	elbow_flex_r	pro_sup_r	wrist_flex_r	wrist_dev_r	arm_flex_l	arm_add_l	arm_rot_l	elbow_flex_l	pro_sup_l	wrist_flex_l	wrist_dev_l
      0.56250000	     -2.88977857	     -3.21144100	      8.27145314	      1.04046170	      0.92404343	      0.46950089	      1.56696458	     -1.88299566	    -15.49598272	     21.86790797	     21.86790797	     17.50804700	     -4.88395839	     -3.79167305	     24.15837941	     -4.12836488	     -2.32639177	     22.93581894	     22.93581894	      4.22093856	    -14.95415321	      0.18008632	     -8.22245104	      1.64625217	      2.37059866	     24.04071564	    -15.29194997	     -3.91705060	     76.30881882	     45.21652371	      0.00000000	      0.00000000	     -0.33433420	     -9.73229332	     -3.55774832	     30.35545326	     46.14754272	      0.00000000	      0.00000000
      0.57542857	     -2.81775186	     -3.10766901	      7.97508134	      1.04078911	      0.92449269	      0.46651663	      2.56159198	     -2.62139990	    -15.10601457	     24.60840867	     24.60840867	     17.13882150	     -5.59066791	     -4.38900102	     23.74527461	     -4.01417290	     -2.70841232	     23.23071534	     23.23071534	      4.87400374	    -14.89044899	     -0.06084316	     -8.30586541	      1.54100002	      2.49037515	     22.56300078	    -15.21354582	     -3.47643320	     75.21516564	     45.23262057	      0.00000000	      0.00000000	      0.36643138	     -9.69389535	     -3.69718527	     30.85519453	     46.17823128	      0.00000000	      0.00000000
      0.58835714	     -2.80393045	     -3.12856612	      7.65205296	      1.04095140	      0.92479367	      0.46380559	      3.80319677	     -3.15479830	    -14.39100041	     27.50987115	     27.50987115	     16.18881133	     -7.04606530	     -5.74567707	     23.47226889	     -4.08172635	     -3.21672228	     23.62859179	     23.62859179	      5.66959531	    -14.52763990	     -0.10107388	     -8.28090063	      1.54096067	      2.49713099	     21.36519473	    -15.22042638	     -2.35342647	     73.14962923	     45.26154590	      0.00000000	      0.00000000	      0.88395133	     -9.65840170	     -4.06440983	     31.69081547	     46.23492601	      0.00000000	      0.00000000
      0.60128571	     -2.71997369	     -3.00824761	      7.28113355	      1.04105908	      0.92520559	      0.46112516	      5.15117720	     -3.94506101	    -13.83998524	     30.80116065	     30.80116065	     15.45466110	     -7.85502930	     -6.48752409	     22.94608714	     -3.99744170	     -3.75458881	     23.74498520	     23.74498520	      6.20844734	    -14.34776821	     -0.37921613	     -8.41871111	      1.41456424	      2.51665710	     19.87583824	    -15.05442650	     -1.87709060	     71.95150294	     45.27900111	      0.00000000	      0.00000000	      1.57630186	     -9.70044546	     -4.15884286	     32.21316084	     46.25795308	      0.00000000	      0.00000000
      0.61421429	     -2.75047380	     -3.05774280	      6.90601495	      1.04098116	      0.92534661	      0.45879119	      6.77063273	     -4.42724605	    -12.96664665	     34.13925551	     34.13925551	     14.18631355	     -9.33505727	     -7.64071565	     22.65150207	     -4.12688479	     -4.30822113	     23.98713705	     23.98713705	      6.84671477	    -13.89314099	     -0.85556950	     -8.38160160	      1.42729846	      2.63774145	     18.53915654	    -14.95895036	     -1.12460236	     69.56494008	     45.32771037	      0.00000000	      0.00000000	      2.18918856	     -9.71057663	     -4.27058760	     33.11870660	     46.28031737	      0.00000000	      0.00000000
      0.62714286	     -2.71807376	     -2.91726383	      6.46423841	      1.04090137	      0.92557748	      0.45654548	      8.48378371	     -5.17653311	    -12.19103077	     37.76561260	     37.76561260	     13.03521945	    -10.31421326	     -8.32711696	     22.12102445	     -4.06084358	     -5.00407831	     23.98462702	     23.98462702	      7.29279195	    -13.60412779	     -1.18831872	     -8.42615881	      1.24546339	      2.60499304	     17.13490260	    -14.74677058	     -0.67706505	     67.94101200	     45.36017302	      0.00000000	      0.00000000	      2.77743055	     -9.85637680	     -4.32371429	     33.73007129	     46.29575216	      0.00000000	      0.00000000
      0.64007143	     -2.62193767	     -2.93874893	      6.07319367	      1.04073697	      0.92591665	      0.45455407	     10.07427539	     -5.59248250	    -11.33183555	     41.07309998	     41.07309998	     11.25857984	    -11.76644090	     -9.78037274	     21.62041157	     -4.21453406	     -5.72928220	     24.08158974	     24.08158974	      7.68421202	    -13.12233723	     -1.93453655	     -8.50868097	      1.24178252	      1.83424238	     16.95421594	    -13.96341615	      0.35363152	     63.40255626	     45.47126822	      0.00000000	      0.00000000	      2.65508781	    -10.26389263	     -4.19270514	     35.41179254	     46.27627938	      0.00000000	      0.00000000
      0.65300000	     -2.54157752	     -2.87921696	      5.66355622	      1.04049792	      0.92621535	      0.45267196	     11.80759214	     -6.08149922	    -10.44977316	     44.52863090	     44.52863090	     10.04892797	    -12.59612370	     -9.50025232	     21.06944130	     -4.24494117	     -6.36054521	     24.06745068	     24.06745068	      8.06641762	    -12.78327094	     -2.48163193	     -8.62340159	      1.16028157	      1.71124695	     15.76087744	    -13.64843827	      0.72894375	     60.72118028	     45.53688712	      0.00000000	      0.00000000	      3.16709548	    -10.51801056	     -4.08529045	     36.40584263	     46.27460054	      0.00000000	      0.00000000
      0.66592857	     -2.39161587	     -2.73678083	      5.28820269	      1.04021150	      0.92662333	      0.45077251	     13.43457805	     -6.65538937	     -9.67611365	     47.79484907	     47.79484907	      8.80712227	    -13.07945285	     -9.43669318	     20.43059124	     -4.13140707	     -6.82092103	     24.02697723	     24.02697723	      8.45863197	    -12.68457812	     -2.71846473	     -8.88605254	      1.02726665	      1.61817546	     14.08413485	    -13.47408770	      0.96150253	     59.42107035	     45.56359436	      0.00000000	      0.00000000	      3.97626145	    -10.73805042	     -4.12348068	     36.92439317	     46.29244197	      0.00000000	      0.00000000
      0.67885714	     -2.29635610	     -2.77912983	      4.86835734	      1.03987271	      0.92707564	      0.44927223	     15.14791768	     -6.85419762	     -8.74801198	     50.87191551	     50.87191551	      8.15513597	    -13.33988087	     -7.42647569	     19.85202528	     -4.29140945	     -7.47948604	     23.94488104	     23.94488104	      8.76317850	    -12.23761995	     -3.45890672	     -8.95417075	      1.04689258	      1.55307244	     13.39429237	    -12.96447216	      0.63432743	     54.75668108	     45.72624089	      0.00000000	      0.00000000	      4.53023093	    -11.06683349	     -3.59795944	     37.96466480	     46.24535754	      0.00000000	      0.00000000
      0.69178571	     -2.19032782	     -2.66241497	      4.51476017	      1.03947700	      0.92760041	      0.44760045	     16.72502627	     -7.27931272	     -8.02647614	     53.53233405	     53.53233405	      7.11729671	    -13.48725187	     -7.18003798	     19.20910491	     -4.16864353	     -7.87505497	     23.75847551	     23.75847551	      9.07714056	    -12.16427584	     -3.61067485	     -9.15602559	      0.95251876	      1.32101755	     11.66059105	    -12.82353357	      0.78533938	     53.44364849	     45.75534491	      0.00000000	      0.00000000	      5.28666895	    -11.37742999	     -3.63465784	     38.48559435	     46.26283153	      0.00000000	      0.00000000
